<svg version="1.0" preserveAspectRatio="xMidYMid meet" viewBox="8.549999999999999 20.720720444444446 427.5 113.96396244444445" zoomAndPan="magnify" xmlns:xlink="http://www.w3.org/1999/xlink" xmlns="http://www.w3.org/2000/svg" style="max-height: 500px" width="427.5" height="113.96396244444445"><defs><g/><clipPath id="f338bfacac"><path clip-rule="nonzero" d="M 33 84 L 61 84 L 61 116.339844 L 33 116.339844 Z M 33 84"/></clipPath><clipPath id="cc96f7d42e"><path clip-rule="nonzero" d="M 15 25.15625 L 110.628906 25.15625 L 110.628906 116.339844 L 15 116.339844 Z M 15 25.15625"/></clipPath><clipPath id="7d1a5c0e8c"><path clip-rule="nonzero" d="M 59.789062 70.234375 L 98.671875 70.234375 L 98.671875 103.761719 L 59.789062 103.761719 Z M 59.789062 70.234375"/></clipPath><clipPath id="b835d64b45"><path clip-rule="nonzero" d="M 62 67.285156 L 65 67.285156 L 65 74 L 62 74 Z M 62 67.285156"/></clipPath><clipPath id="3387c51714"><path clip-rule="nonzero" d="M 52.851562 77 L 59 77 L 59 80 L 52.851562 80 Z M 52.851562 77"/></clipPath></defs><g clip-path="url(#f338bfacac)"><path fill-rule="nonzero" fill-opacity="1" d="M 60.207031 96.726562 L 33.296875 116.277344 L 43.578125 84.644531 L 46.953125 87.097656 L 56.832031 94.273438 L 60.207031 96.726562" fill="#4059ad"/></g><g clip-path="url(#cc96f7d42e)"><path fill-rule="nonzero" fill-opacity="1" d="M 110.8125 59.957031 L 74.214844 59.957031 L 62.90625 25.152344 L 51.597656 59.957031 L 15 59.957031 L 44.609375 81.472656 L 48.816406 84.527344 L 58.699219 91.707031 L 62.90625 94.765625 L 92.515625 116.277344 L 81.207031 81.472656 Z M 83.101562 103.34375 L 62.90625 88.667969 L 50.425781 79.601562 L 30.226562 64.925781 L 55.191406 64.925781 L 62.90625 41.1875 L 70.621094 64.925781 L 95.585938 64.925781 L 75.390625 79.601562 L 83.101562 103.34375" fill="#f46530"/></g><path fill-rule="nonzero" fill-opacity="1" d="M 71.890625 80.75 L 76.105469 93.722656 L 65.070312 85.703125 L 52.585938 76.636719 L 41.550781 68.617188 L 57.867188 68.617188 L 58.691406 66.074219 L 62.90625 53.101562 L 67.121094 66.074219 L 67.949219 68.617188 L 84.261719 68.617188 L 73.226562 76.636719 L 71.0625 78.207031 L 71.890625 80.75" fill="#4059ad"/><path fill-rule="nonzero" fill-opacity="1" d="M 83.175781 102.726562 C 81.277344 102.726562 79.375 102.28125 77.671875 101.4375 L 73.527344 99.382812 L 69.046875 97.097656 C 67.53125 96.324219 66.925781 94.464844 67.699219 92.949219 C 67.847656 92.65625 68.035156 92.398438 68.257812 92.171875 C 68.832031 91.59375 69.628906 91.261719 70.449219 91.261719 C 70.929688 91.261719 71.414062 91.378906 71.84375 91.597656 L 74.128906 92.761719 L 61.746094 80.46875 C 60.539062 79.269531 60.53125 77.316406 61.722656 76.105469 C 61.730469 76.097656 61.769531 76.058594 61.769531 76.058594 C 62.335938 75.507812 63.089844 75.207031 63.890625 75.207031 C 64.726562 75.207031 65.542969 75.542969 66.136719 76.132812 L 71.117188 81.078125 C 70.714844 79.984375 70.945312 78.707031 71.820312 77.824219 L 71.859375 77.785156 C 72.429688 77.234375 73.183594 76.929688 73.984375 76.929688 C 74.816406 76.929688 75.636719 77.269531 76.230469 77.855469 L 76.433594 78.058594 C 76.019531 76.96875 76.222656 75.695312 77.058594 74.820312 L 77.101562 74.777344 C 77.683594 74.1875 78.460938 73.863281 79.292969 73.863281 C 80.109375 73.863281 80.882812 74.179688 81.460938 74.757812 L 82.222656 75.511719 C 81.808594 74.417969 82.011719 73.144531 82.851562 72.269531 C 82.863281 72.253906 82.882812 72.238281 82.898438 72.222656 C 83.480469 71.636719 84.253906 71.316406 85.078125 71.316406 C 85.898438 71.316406 86.667969 71.632812 87.25 72.210938 L 93.730469 78.644531 L 94.117188 79.023438 C 94.121094 79.03125 94.582031 79.5 94.792969 79.777344 C 97.394531 82.875 98.246094 86.890625 97.195312 91.089844 C 96.804688 92.648438 96.140625 94.101562 95.21875 95.410156 C 94.804688 95.996094 94.332031 96.5625 93.808594 97.09375 L 91.75 99.171875 C 91.65625 99.265625 91.5625 99.355469 91.46875 99.445312 C 89.242188 101.5625 86.296875 102.726562 83.175781 102.726562" fill="#ffffff"/><g clip-path="url(#7d1a5c0e8c)"><path fill-rule="nonzero" fill-opacity="1" d="M 85.082031 70.28125 L 85.078125 70.28125 C 83.980469 70.28125 82.949219 70.707031 82.171875 71.484375 C 82.140625 71.515625 82.117188 71.539062 82.101562 71.554688 C 81.636719 72.042969 81.308594 72.625 81.128906 73.261719 C 80.566406 72.976562 79.941406 72.828125 79.292969 72.828125 C 78.183594 72.828125 77.144531 73.261719 76.367188 74.046875 L 76.355469 74.058594 L 76.34375 74.074219 L 76.339844 74.074219 L 76.335938 74.078125 L 76.328125 74.089844 L 76.3125 74.105469 C 75.777344 74.664062 75.421875 75.351562 75.269531 76.097656 C 74.855469 75.964844 74.421875 75.894531 73.984375 75.894531 C 72.914062 75.894531 71.910156 76.300781 71.148438 77.035156 C 71.140625 77.042969 71.132812 77.050781 71.125 77.054688 L 71.109375 77.074219 L 71.085938 77.097656 C 70.640625 77.546875 70.320312 78.074219 70.125 78.632812 L 66.863281 75.394531 C 66.078125 74.617188 64.996094 74.171875 63.890625 74.171875 C 62.820312 74.171875 61.808594 74.578125 61.046875 75.316406 L 61.011719 75.351562 C 61.003906 75.363281 60.992188 75.371094 60.984375 75.378906 C 59.394531 76.996094 59.40625 79.605469 61.015625 81.203125 L 70.121094 90.238281 C 69.144531 90.320312 68.214844 90.746094 67.523438 91.445312 C 67.226562 91.742188 66.976562 92.089844 66.78125 92.46875 L 66.777344 92.472656 L 66.777344 92.476562 C 65.746094 94.503906 66.554688 96.988281 68.578125 98.019531 L 73.058594 100.304688 L 73.078125 100.316406 L 77.210938 102.363281 C 79.058594 103.277344 81.121094 103.761719 83.175781 103.761719 C 86.5625 103.761719 89.761719 102.496094 92.179688 100.195312 L 92.183594 100.191406 C 92.285156 100.097656 92.382812 100 92.480469 99.902344 L 92.484375 99.898438 L 94.542969 97.820312 C 95.105469 97.25 95.617188 96.640625 96.0625 96.003906 C 97.058594 94.589844 97.777344 93.023438 98.199219 91.34375 C 99.332031 86.820312 98.40625 82.480469 95.597656 79.125 C 95.324219 78.777344 94.851562 78.296875 94.847656 78.292969 L 94.84375 78.289062 L 94.460938 77.910156 L 92.980469 76.441406 L 87.980469 71.476562 C 87.203125 70.707031 86.171875 70.28125 85.082031 70.28125 Z M 85.078125 72.351562 C 85.601562 72.351562 86.125 72.546875 86.523438 72.945312 L 91.523438 77.910156 L 93.003906 79.378906 L 93.386719 79.761719 C 93.515625 79.886719 93.882812 80.277344 93.980469 80.417969 C 96.535156 83.445312 97.109375 87.1875 96.191406 90.839844 C 95.84375 92.238281 95.238281 93.589844 94.371094 94.8125 C 93.992188 95.355469 93.558594 95.875 93.074219 96.363281 L 91.015625 98.441406 C 90.929688 98.527344 90.84375 98.613281 90.753906 98.695312 C 88.667969 100.679688 85.941406 101.691406 83.175781 101.691406 C 81.460938 101.691406 79.730469 101.300781 78.128906 100.507812 L 73.996094 98.460938 L 69.515625 96.175781 C 68.507812 95.660156 68.105469 94.425781 68.617188 93.417969 C 68.71875 93.222656 68.84375 93.050781 68.992188 92.902344 C 69.378906 92.511719 69.90625 92.296875 70.449219 92.296875 C 70.761719 92.296875 71.078125 92.367188 71.375 92.519531 L 75.144531 94.441406 L 75.355469 94.546875 C 75.472656 94.605469 75.589844 94.632812 75.699219 94.632812 C 75.894531 94.632812 76.074219 94.546875 76.207031 94.414062 C 76.46875 94.152344 76.542969 93.699219 76.207031 93.367188 L 62.472656 79.730469 C 61.667969 78.933594 61.664062 77.632812 62.460938 76.828125 C 62.46875 76.820312 62.480469 76.8125 62.488281 76.800781 C 62.878906 76.421875 63.382812 76.238281 63.890625 76.238281 C 64.441406 76.238281 64.992188 76.453125 65.410156 76.867188 L 76.816406 88.191406 C 76.992188 88.363281 77.21875 88.449219 77.449219 88.449219 C 77.664062 88.449219 77.882812 88.367188 78.054688 88.207031 C 78.0625 88.199219 78.066406 88.195312 78.074219 88.1875 C 78.421875 87.835938 78.394531 87.246094 78.042969 86.894531 L 72.566406 81.457031 C 71.761719 80.660156 71.757812 79.359375 72.554688 78.554688 C 72.5625 78.546875 72.570312 78.535156 72.582031 78.527344 C 72.972656 78.148438 73.476562 77.964844 73.984375 77.964844 C 74.535156 77.964844 75.085938 78.179688 75.5 78.589844 L 81.71875 84.761719 C 81.894531 84.9375 82.121094 85.023438 82.351562 85.023438 C 82.566406 85.019531 82.785156 84.941406 82.957031 84.78125 C 82.964844 84.773438 82.972656 84.765625 82.976562 84.757812 C 83.324219 84.410156 83.296875 83.816406 82.945312 83.464844 L 77.894531 78.457031 C 77.09375 77.660156 77.027344 76.351562 77.808594 75.53125 C 77.816406 75.523438 77.824219 75.515625 77.835938 75.503906 C 78.234375 75.101562 78.761719 74.898438 79.292969 74.898438 C 79.8125 74.898438 80.335938 75.097656 80.734375 75.492188 L 86.746094 81.460938 C 86.921875 81.632812 87.148438 81.722656 87.375 81.722656 C 87.605469 81.722656 87.832031 81.632812 88.007812 81.457031 C 88.355469 81.105469 88.351562 80.542969 88.003906 80.195312 L 83.683594 75.90625 C 82.882812 75.113281 82.816406 73.800781 83.597656 72.984375 C 83.605469 72.976562 83.613281 72.964844 83.625 72.957031 C 84.023438 72.554688 84.550781 72.351562 85.078125 72.351562" fill="#000000"/></g><path fill-rule="nonzero" fill-opacity="1" d="M 56.933594 70.265625 C 56.652344 70.265625 56.386719 70.375 56.1875 70.574219 C 56.183594 70.578125 56.183594 70.578125 56.183594 70.578125 C 55.769531 70.996094 55.773438 71.671875 56.1875 72.085938 L 59.003906 74.863281 C 59.203125 75.0625 59.472656 75.171875 59.757812 75.171875 C 60.039062 75.171875 60.304688 75.058594 60.503906 74.859375 C 60.503906 74.859375 60.503906 74.859375 60.507812 74.855469 C 60.707031 74.65625 60.816406 74.386719 60.8125 74.101562 C 60.8125 73.820312 60.703125 73.550781 60.5 73.351562 L 57.6875 70.574219 C 57.484375 70.375 57.21875 70.261719 56.933594 70.265625" fill="#000000"/><g clip-path="url(#b835d64b45)"><path fill-rule="nonzero" fill-opacity="1" d="M 64.828125 68.347656 C 64.828125 67.761719 64.347656 67.285156 63.761719 67.285156 C 63.175781 67.289062 62.703125 67.769531 62.703125 68.355469 L 62.730469 71.980469 C 62.734375 72.566406 63.210938 73.042969 63.796875 73.039062 C 64.089844 73.039062 64.351562 72.917969 64.542969 72.726562 C 64.738281 72.535156 64.855469 72.265625 64.855469 71.972656 L 64.828125 68.347656" fill="#000000"/></g><g clip-path="url(#3387c51714)"><path fill-rule="nonzero" fill-opacity="1" d="M 53.9375 77.128906 C 53.351562 77.125 52.875 77.601562 52.871094 78.1875 C 52.871094 78.773438 53.34375 79.253906 53.929688 79.253906 L 57.550781 79.28125 C 57.847656 79.285156 58.113281 79.164062 58.308594 78.96875 C 58.5 78.777344 58.617188 78.515625 58.617188 78.222656 C 58.621094 77.636719 58.144531 77.15625 57.5625 77.15625 L 53.9375 77.128906" fill="#000000"/></g><path fill-rule="nonzero" fill-opacity="1" d="M 71.070312 69.121094 C 70.785156 69.121094 70.523438 69.234375 70.316406 69.4375 L 67.542969 72.253906 C 67.34375 72.453125 67.234375 72.722656 67.234375 73.003906 C 67.234375 73.289062 67.347656 73.554688 67.546875 73.757812 C 67.964844 74.167969 68.636719 74.167969 69.046875 73.753906 C 69.050781 73.753906 69.050781 73.75 69.050781 73.75 L 71.828125 70.933594 C 72.242188 70.515625 72.238281 69.84375 71.820312 69.429688 C 71.621094 69.230469 71.351562 69.121094 71.070312 69.121094" fill="#000000"/><path fill-rule="nonzero" fill-opacity="1" d="M 57.960938 81.910156 C 57.957031 81.914062 57.957031 81.914062 57.957031 81.914062 L 55.179688 84.730469 C 54.980469 84.933594 54.871094 85.199219 54.871094 85.484375 C 54.871094 85.769531 54.984375 86.035156 55.1875 86.234375 C 55.386719 86.4375 55.65625 86.546875 55.9375 86.542969 C 56.222656 86.542969 56.488281 86.433594 56.6875 86.234375 C 56.6875 86.230469 56.6875 86.230469 56.691406 86.230469 L 59.464844 83.414062 C 59.664062 83.210938 59.773438 82.945312 59.773438 82.660156 C 59.773438 82.375 59.660156 82.109375 59.460938 81.910156 C 59.257812 81.707031 58.992188 81.597656 58.707031 81.601562 C 58.425781 81.601562 58.160156 81.710938 57.960938 81.910156" fill="#000000"/><g fill-opacity="1" fill="#4059ad"><g transform="translate(111.989718, 115.134771)"><g><path d="M 24.390625 1.09375 C 20.210938 1.09375 16.535156 0.335938 13.359375 -1.171875 C 10.179688 -2.679688 7.691406 -4.84375 5.890625 -7.65625 C 4.097656 -10.46875 3.203125 -13.828125 3.203125 -17.734375 L 15.15625 -17.734375 C 15.15625 -15.078125 16.082031 -13.109375 17.9375 -11.828125 C 19.789062 -10.554688 21.914062 -9.921875 24.3125 -9.921875 C 25.820312 -9.921875 27.238281 -10.164062 28.5625 -10.65625 C 29.894531 -11.15625 30.988281 -11.882812 31.84375 -12.84375 C 32.707031 -13.8125 33.140625 -14.972656 33.140625 -16.328125 C 33.140625 -17.734375 32.644531 -18.84375 31.65625 -19.65625 C 30.664062 -20.46875 29.335938 -21.132812 27.671875 -21.65625 C 26.003906 -22.175781 24.179688 -22.671875 22.203125 -23.140625 C 20.160156 -23.609375 18.070312 -24.179688 15.9375 -24.859375 C 13.800781 -25.535156 11.820312 -26.429688 10 -27.546875 C 8.175781 -28.671875 6.71875 -30.179688 5.625 -32.078125 C 4.53125 -33.984375 3.984375 -36.394531 3.984375 -39.3125 C 3.984375 -44.570312 5.765625 -48.617188 9.328125 -51.453125 C 12.898438 -54.296875 17.738281 -55.71875 23.84375 -55.71875 C 30.09375 -55.71875 34.9375 -54.140625 38.375 -50.984375 C 41.8125 -47.835938 43.53125 -43.554688 43.53125 -38.140625 L 31.8125 -38.140625 C 31.8125 -40.484375 30.976562 -42.210938 29.3125 -43.328125 C 27.644531 -44.453125 25.71875 -45.015625 23.53125 -45.015625 C 21.601562 -45.015625 19.828125 -44.597656 18.203125 -43.765625 C 16.585938 -42.929688 15.78125 -41.628906 15.78125 -39.859375 C 15.78125 -38.554688 16.257812 -37.523438 17.21875 -36.765625 C 18.1875 -36.015625 19.46875 -35.390625 21.0625 -34.890625 C 22.65625 -34.398438 24.414062 -33.921875 26.34375 -33.453125 C 28.425781 -32.929688 30.5625 -32.316406 32.75 -31.609375 C 34.9375 -30.910156 36.96875 -29.960938 38.84375 -28.765625 C 40.71875 -27.566406 42.238281 -25.976562 43.40625 -24 C 44.582031 -22.019531 45.171875 -19.515625 45.171875 -16.484375 C 45.171875 -12.523438 44.21875 -9.242188 42.3125 -6.640625 C 40.414062 -4.035156 37.90625 -2.09375 34.78125 -0.8125 C 31.65625 0.457031 28.191406 1.09375 24.390625 1.09375 Z M 24.390625 1.09375"/></g></g></g><g fill-opacity="1" fill="#4059ad"><g transform="translate(160.361201, 115.134771)"><g><path d="M 26.109375 -10.15625 L 31.265625 -10.15625 L 31.265625 0 L 23.21875 0 C 18.570312 0 14.90625 -1.335938 12.21875 -4.015625 C 9.539062 -6.703125 8.203125 -10.390625 8.203125 -15.078125 L 8.203125 -33.0625 L 0.546875 -33.0625 L 0.546875 -35.484375 L 17.265625 -53.21875 L 19.375 -53.21875 L 19.375 -42.203125 L 31.03125 -42.203125 L 31.03125 -33.0625 L 19.625 -33.0625 L 19.625 -16.5625 C 19.625 -14.53125 20.179688 -12.953125 21.296875 -11.828125 C 22.421875 -10.710938 24.023438 -10.15625 26.109375 -10.15625 Z M 26.109375 -10.15625"/></g></g></g><g fill-opacity="1" fill="#4059ad"><g transform="translate(193.963354, 115.134771)"><g><path d="M 39.9375 -42.28125 L 48.453125 -42.28125 L 48.453125 -0.078125 L 39.46875 -0.078125 L 38.53125 -3.828125 C 36.707031 -2.265625 34.632812 -1.039062 32.3125 -0.15625 C 30 0.726562 27.515625 1.171875 24.859375 1.171875 C 20.628906 1.171875 16.847656 0.195312 13.515625 -1.75 C 10.179688 -3.707031 7.550781 -6.363281 5.625 -9.71875 C 3.695312 -13.082031 2.734375 -16.90625 2.734375 -21.1875 C 2.734375 -25.40625 3.695312 -29.191406 5.625 -32.546875 C 7.550781 -35.910156 10.179688 -38.554688 13.515625 -40.484375 C 16.847656 -42.410156 20.628906 -43.375 24.859375 -43.375 C 27.566406 -43.375 30.09375 -42.914062 32.4375 -42 C 34.78125 -41.09375 36.863281 -39.832031 38.6875 -38.21875 Z M 25.796875 -9.609375 C 27.984375 -9.609375 29.945312 -10.101562 31.6875 -11.09375 C 33.4375 -12.082031 34.804688 -13.445312 35.796875 -15.1875 C 36.785156 -16.9375 37.28125 -18.9375 37.28125 -21.1875 C 37.28125 -23.375 36.785156 -25.335938 35.796875 -27.078125 C 34.804688 -28.828125 33.4375 -30.207031 31.6875 -31.21875 C 29.945312 -32.238281 27.984375 -32.75 25.796875 -32.75 C 23.554688 -32.75 21.570312 -32.238281 19.84375 -31.21875 C 18.125 -30.207031 16.769531 -28.828125 15.78125 -27.078125 C 14.789062 -25.335938 14.296875 -23.375 14.296875 -21.1875 C 14.296875 -18.9375 14.789062 -16.953125 15.78125 -15.234375 C 16.769531 -13.515625 18.125 -12.144531 19.84375 -11.125 C 21.570312 -10.113281 23.554688 -9.609375 25.796875 -9.609375 Z M 25.796875 -9.609375"/></g></g></g><g fill-opacity="1" fill="#4059ad"><g transform="translate(247.883087, 115.134771)"><g><path d="M 27.046875 -42.4375 L 30.796875 -42.4375 L 30.796875 -31.65625 L 25.875 -31.65625 C 22.644531 -31.65625 20.335938 -30.898438 18.953125 -29.390625 C 17.566406 -27.878906 16.875 -25.40625 16.875 -21.96875 L 16.875 0 L 5.46875 0 L 5.46875 -42.203125 L 12.8125 -42.203125 L 14.84375 -37.046875 C 17.707031 -40.640625 21.773438 -42.4375 27.046875 -42.4375 Z M 27.046875 -42.4375"/></g></g></g><g fill-opacity="1" fill="#4059ad"><g transform="translate(279.687926, 115.134771)"><g><path d="M 44 -54.703125 L 44 -43.6875 L 28.765625 -43.6875 L 28.765625 0 L 16.875 0 L 16.875 -43.6875 L 1.71875 -43.6875 L 1.71875 -54.703125 Z M 44 -54.703125"/></g></g></g><g fill-opacity="1" fill="#4059ad"><g transform="translate(325.324337, 115.134771)"><g><path d="M 39.9375 -42.28125 L 48.453125 -42.28125 L 48.453125 -0.078125 L 39.46875 -0.078125 L 38.53125 -3.828125 C 36.707031 -2.265625 34.632812 -1.039062 32.3125 -0.15625 C 30 0.726562 27.515625 1.171875 24.859375 1.171875 C 20.628906 1.171875 16.847656 0.195312 13.515625 -1.75 C 10.179688 -3.707031 7.550781 -6.363281 5.625 -9.71875 C 3.695312 -13.082031 2.734375 -16.90625 2.734375 -21.1875 C 2.734375 -25.40625 3.695312 -29.191406 5.625 -32.546875 C 7.550781 -35.910156 10.179688 -38.554688 13.515625 -40.484375 C 16.847656 -42.410156 20.628906 -43.375 24.859375 -43.375 C 27.566406 -43.375 30.09375 -42.914062 32.4375 -42 C 34.78125 -41.09375 36.863281 -39.832031 38.6875 -38.21875 Z M 25.796875 -9.609375 C 27.984375 -9.609375 29.945312 -10.101562 31.6875 -11.09375 C 33.4375 -12.082031 34.804688 -13.445312 35.796875 -15.1875 C 36.785156 -16.9375 37.28125 -18.9375 37.28125 -21.1875 C 37.28125 -23.375 36.785156 -25.335938 35.796875 -27.078125 C 34.804688 -28.828125 33.4375 -30.207031 31.6875 -31.21875 C 29.945312 -32.238281 27.984375 -32.75 25.796875 -32.75 C 23.554688 -32.75 21.570312 -32.238281 19.84375 -31.21875 C 18.125 -30.207031 16.769531 -28.828125 15.78125 -27.078125 C 14.789062 -25.335938 14.296875 -23.375 14.296875 -21.1875 C 14.296875 -18.9375 14.789062 -16.953125 15.78125 -15.234375 C 16.769531 -13.515625 18.125 -12.144531 19.84375 -11.125 C 21.570312 -10.113281 23.554688 -9.609375 25.796875 -9.609375 Z M 25.796875 -9.609375"/></g></g></g><g fill-opacity="1" fill="#4059ad"><g transform="translate(379.24407, 115.134771)"><g><path d="M 28.53125 -43.375 C 32.75 -43.375 36.523438 -42.410156 39.859375 -40.484375 C 43.191406 -38.554688 45.820312 -35.910156 47.75 -32.546875 C 49.675781 -29.191406 50.640625 -25.378906 50.640625 -21.109375 C 50.640625 -16.828125 49.675781 -13.003906 47.75 -9.640625 C 45.820312 -6.285156 43.191406 -3.628906 39.859375 -1.671875 C 36.523438 0.273438 32.75 1.25 28.53125 1.25 C 26.34375 1.25 24.253906 0.9375 22.265625 0.3125 C 20.285156 -0.3125 18.488281 -1.171875 16.875 -2.265625 L 16.875 15.234375 L 5.46875 15.234375 L 5.46875 -42.203125 L 13.046875 -42.203125 L 15 -38.375 C 16.769531 -39.9375 18.800781 -41.160156 21.09375 -42.046875 C 23.394531 -42.929688 25.875 -43.375 28.53125 -43.375 Z M 27.59375 -9.53125 C 29.78125 -9.53125 31.742188 -10.035156 33.484375 -11.046875 C 35.234375 -12.066406 36.601562 -13.445312 37.59375 -15.1875 C 38.582031 -16.9375 39.078125 -18.910156 39.078125 -21.109375 C 39.078125 -23.296875 38.582031 -25.257812 37.59375 -27 C 36.601562 -28.75 35.234375 -30.128906 33.484375 -31.140625 C 31.742188 -32.160156 29.78125 -32.671875 27.59375 -32.671875 C 25.351562 -32.671875 23.367188 -32.160156 21.640625 -31.140625 C 19.921875 -30.128906 18.566406 -28.75 17.578125 -27 C 16.585938 -25.257812 16.09375 -23.296875 16.09375 -21.109375 C 16.09375 -18.910156 16.585938 -16.9375 17.578125 -15.1875 C 18.566406 -13.445312 19.921875 -12.066406 21.640625 -11.046875 C 23.367188 -10.035156 25.351562 -9.53125 27.59375 -9.53125 Z M 27.59375 -9.53125"/></g></g></g></svg>