<svg xmlns="http://www.w3.org/2000/svg" xmlns:xlink="http://www.w3.org/1999/xlink" width="428" zoomAndPan="magnify" viewBox="0 0 321 85.499998" height="114" preserveAspectRatio="xMidYMid meet" version="1.0"><defs><clipPath id="e92b1bdf3b"><path d="M 19.304688 47.199219 L 40 47.199219 L 40 71.320312 L 19.304688 71.320312 Z M 19.304688 47.199219 " clip-rule="nonzero"/></clipPath><clipPath id="7a6ecc9613"><path d="M 5.878906 3.308594 L 77.207031 3.308594 L 77.207031 71.320312 L 5.878906 71.320312 Z M 5.878906 3.308594 " clip-rule="nonzero"/></clipPath><clipPath id="fe47437a4e"><path d="M 39.289062 36.929688 L 68.289062 36.929688 L 68.289062 61.9375 L 39.289062 61.9375 Z M 39.289062 36.929688 " clip-rule="nonzero"/></clipPath><clipPath id="b0c4a0043b"><path d="M 41 34.730469 L 43.175781 34.730469 L 43.175781 39.738281 L 41 39.738281 Z M 41 34.730469 " clip-rule="nonzero"/></clipPath><clipPath id="aab264cbff"><path d="M 34.113281 42 L 38.699219 42 L 38.699219 44 L 34.113281 44 Z M 34.113281 42 " clip-rule="nonzero"/></clipPath></defs><g clip-path="url(#e92b1bdf3b)"><path fill="#ffffff" d="M 39.597656 56.691406 L 19.527344 71.273438 L 27.195312 47.679688 L 29.714844 49.507812 L 37.082031 54.859375 L 39.597656 56.691406 " fill-opacity="1" fill-rule="nonzero"/></g><g clip-path="url(#7a6ecc9613)"><path fill="#f46530" d="M 77.34375 29.265625 L 50.046875 29.265625 L 41.613281 3.304688 L 33.175781 29.265625 L 5.878906 29.265625 L 27.964844 45.3125 L 31.101562 47.589844 L 38.472656 52.945312 L 41.613281 55.226562 L 63.695312 71.273438 L 55.261719 45.3125 Z M 56.675781 61.625 L 41.613281 50.679688 L 32.304688 43.917969 L 17.238281 32.972656 L 35.859375 32.972656 L 41.613281 15.265625 L 47.367188 32.972656 L 65.988281 32.972656 L 50.925781 43.917969 L 56.675781 61.625 " fill-opacity="1" fill-rule="nonzero"/></g><path fill="#ffffff" d="M 48.3125 44.773438 L 51.457031 54.449219 L 43.226562 48.46875 L 33.914062 41.707031 L 25.683594 35.722656 L 37.855469 35.722656 L 38.46875 33.828125 L 41.613281 24.152344 L 44.757812 33.828125 L 45.375 35.722656 L 57.539062 35.722656 L 49.308594 41.707031 L 47.695312 42.878906 L 48.3125 44.773438 " fill-opacity="1" fill-rule="nonzero"/><path fill="#ffffff" d="M 56.730469 61.164062 C 55.316406 61.164062 53.894531 60.832031 52.625 60.203125 L 49.535156 58.671875 L 46.191406 56.96875 C 45.0625 56.390625 44.609375 55.003906 45.1875 53.875 C 45.296875 53.65625 45.4375 53.460938 45.605469 53.292969 C 46.03125 52.863281 46.625 52.613281 47.238281 52.613281 C 47.597656 52.613281 47.957031 52.703125 48.277344 52.863281 L 49.984375 53.734375 L 40.746094 44.5625 C 39.847656 43.667969 39.839844 42.214844 40.730469 41.308594 C 40.734375 41.304688 40.765625 41.273438 40.765625 41.273438 C 41.1875 40.863281 41.75 40.640625 42.347656 40.640625 C 42.96875 40.640625 43.578125 40.890625 44.023438 41.332031 L 47.738281 45.019531 C 47.4375 44.203125 47.609375 43.25 48.261719 42.59375 L 48.289062 42.5625 C 48.714844 42.152344 49.277344 41.925781 49.875 41.925781 C 50.496094 41.925781 51.109375 42.179688 51.550781 42.613281 L 51.703125 42.765625 C 51.394531 41.953125 51.542969 41.003906 52.167969 40.351562 L 52.199219 40.320312 C 52.632812 39.878906 53.214844 39.636719 53.835938 39.636719 C 54.445312 39.636719 55.019531 39.875 55.453125 40.304688 L 56.019531 40.867188 C 55.710938 40.050781 55.863281 39.101562 56.488281 38.449219 C 56.496094 38.4375 56.511719 38.425781 56.523438 38.414062 C 56.957031 37.976562 57.535156 37.738281 58.148438 37.738281 C 58.761719 37.738281 59.335938 37.972656 59.769531 38.40625 L 64.601562 43.203125 L 64.890625 43.488281 C 64.894531 43.492188 65.238281 43.839844 65.394531 44.046875 C 67.335938 46.359375 67.972656 49.355469 67.1875 52.488281 C 66.894531 53.648438 66.402344 54.734375 65.714844 55.707031 C 65.40625 56.144531 65.050781 56.566406 64.660156 56.964844 L 63.125 58.515625 C 63.054688 58.585938 62.984375 58.652344 62.917969 58.71875 C 61.253906 60.296875 59.058594 61.164062 56.730469 61.164062 " fill-opacity="1" fill-rule="nonzero"/><g clip-path="url(#fe47437a4e)"><path fill="#000000" d="M 58.152344 36.964844 L 58.148438 36.964844 C 57.332031 36.964844 56.5625 37.285156 55.980469 37.863281 C 55.957031 37.886719 55.941406 37.902344 55.929688 37.914062 C 55.582031 38.28125 55.339844 38.714844 55.203125 39.1875 C 54.785156 38.976562 54.316406 38.867188 53.835938 38.867188 C 53.007812 38.867188 52.230469 39.1875 51.652344 39.773438 L 51.644531 39.78125 L 51.636719 39.792969 L 51.632812 39.792969 L 51.628906 39.796875 L 51.625 39.804688 L 51.613281 39.816406 C 51.210938 40.234375 50.949219 40.746094 50.832031 41.304688 C 50.523438 41.203125 50.203125 41.152344 49.875 41.152344 C 49.078125 41.152344 48.328125 41.457031 47.761719 42.003906 C 47.753906 42.007812 47.75 42.015625 47.742188 42.019531 L 47.730469 42.03125 L 47.714844 42.050781 C 47.382812 42.386719 47.140625 42.777344 46.996094 43.195312 L 44.5625 40.78125 C 43.976562 40.199219 43.171875 39.867188 42.347656 39.867188 C 41.546875 39.867188 40.792969 40.171875 40.226562 40.722656 L 40.199219 40.746094 C 40.191406 40.757812 40.183594 40.761719 40.179688 40.769531 C 38.992188 41.972656 39 43.921875 40.203125 45.113281 L 46.992188 51.851562 C 46.265625 51.914062 45.570312 52.230469 45.054688 52.75 C 44.835938 52.972656 44.648438 53.230469 44.503906 53.515625 L 44.5 53.519531 C 43.730469 55.03125 44.332031 56.886719 45.84375 57.65625 L 49.183594 59.359375 L 49.199219 59.367188 L 52.28125 60.894531 C 53.660156 61.578125 55.199219 61.9375 56.730469 61.9375 C 59.257812 61.9375 61.644531 60.992188 63.445312 59.277344 L 63.449219 59.273438 C 63.523438 59.203125 63.597656 59.132812 63.671875 59.058594 L 63.671875 59.054688 L 65.210938 57.507812 C 65.628906 57.082031 66.011719 56.625 66.34375 56.152344 C 67.085938 55.097656 67.621094 53.929688 67.9375 52.675781 C 68.78125 49.300781 68.089844 46.066406 65.996094 43.5625 C 65.792969 43.304688 65.4375 42.945312 65.4375 42.941406 L 65.433594 42.9375 L 65.148438 42.65625 L 64.042969 41.558594 L 60.3125 37.855469 C 59.734375 37.285156 58.964844 36.964844 58.152344 36.964844 Z M 58.148438 38.511719 C 58.539062 38.511719 58.929688 38.65625 59.226562 38.953125 L 62.957031 42.65625 L 64.0625 43.75 L 64.347656 44.035156 C 64.441406 44.128906 64.71875 44.421875 64.789062 44.527344 C 66.695312 46.785156 67.125 49.574219 66.4375 52.300781 C 66.179688 53.34375 65.726562 54.351562 65.082031 55.261719 C 64.796875 55.667969 64.476562 56.054688 64.113281 56.417969 L 62.578125 57.96875 C 62.515625 58.035156 62.449219 58.097656 62.382812 58.160156 C 60.828125 59.640625 58.792969 60.394531 56.730469 60.394531 C 55.453125 60.394531 54.160156 60.101562 52.964844 59.511719 L 49.882812 57.984375 L 46.542969 56.28125 C 45.789062 55.894531 45.488281 54.972656 45.871094 54.222656 C 45.949219 54.078125 46.039062 53.949219 46.152344 53.839844 C 46.441406 53.546875 46.832031 53.386719 47.238281 53.386719 C 47.472656 53.386719 47.707031 53.4375 47.929688 53.550781 L 50.742188 54.984375 L 50.898438 55.066406 C 50.984375 55.109375 51.074219 55.128906 51.152344 55.128906 C 51.300781 55.128906 51.433594 55.066406 51.53125 54.964844 C 51.726562 54.769531 51.785156 54.433594 51.53125 54.183594 L 41.289062 44.015625 C 40.6875 43.417969 40.6875 42.449219 41.28125 41.847656 C 41.285156 41.84375 41.292969 41.835938 41.300781 41.828125 C 41.589844 41.546875 41.96875 41.410156 42.347656 41.410156 C 42.757812 41.410156 43.167969 41.570312 43.480469 41.878906 L 51.988281 50.324219 C 52.117188 50.453125 52.289062 50.515625 52.460938 50.515625 C 52.621094 50.515625 52.78125 50.457031 52.910156 50.335938 C 52.917969 50.332031 52.917969 50.328125 52.925781 50.320312 C 53.183594 50.058594 53.164062 49.621094 52.902344 49.355469 L 48.816406 45.300781 C 48.21875 44.707031 48.214844 43.738281 48.808594 43.136719 C 48.816406 43.132812 48.820312 43.121094 48.828125 43.117188 C 49.121094 42.832031 49.496094 42.695312 49.875 42.695312 C 50.285156 42.695312 50.695312 42.855469 51.003906 43.164062 L 55.644531 47.765625 C 55.773438 47.898438 55.945312 47.960938 56.117188 47.960938 C 56.277344 47.957031 56.4375 47.902344 56.566406 47.78125 C 56.574219 47.773438 56.578125 47.769531 56.582031 47.761719 C 56.839844 47.503906 56.820312 47.0625 56.558594 46.800781 L 52.792969 43.0625 C 52.195312 42.46875 52.144531 41.492188 52.726562 40.882812 C 52.734375 40.875 52.738281 40.871094 52.746094 40.859375 C 53.046875 40.5625 53.4375 40.410156 53.835938 40.410156 C 54.222656 40.410156 54.613281 40.558594 54.910156 40.851562 L 59.394531 45.304688 C 59.523438 45.433594 59.695312 45.5 59.863281 45.5 C 60.035156 45.5 60.203125 45.433594 60.335938 45.300781 C 60.59375 45.039062 60.589844 44.621094 60.332031 44.359375 L 57.109375 41.160156 C 56.511719 40.570312 56.460938 39.589844 57.046875 38.980469 C 57.050781 38.976562 57.058594 38.96875 57.066406 38.960938 C 57.363281 38.660156 57.757812 38.511719 58.148438 38.511719 " fill-opacity="1" fill-rule="nonzero"/></g><path fill="#000000" d="M 37.15625 36.953125 C 36.949219 36.953125 36.75 37.035156 36.601562 37.183594 C 36.597656 37.1875 36.597656 37.1875 36.597656 37.1875 C 36.289062 37.5 36.292969 38.003906 36.601562 38.3125 L 38.703125 40.382812 C 38.851562 40.53125 39.050781 40.613281 39.265625 40.613281 C 39.472656 40.613281 39.671875 40.527344 39.820312 40.378906 C 39.820312 40.378906 39.820312 40.378906 39.824219 40.378906 C 39.972656 40.230469 40.054688 40.027344 40.050781 39.816406 C 40.050781 39.605469 39.96875 39.40625 39.816406 39.253906 L 37.71875 37.183594 C 37.566406 37.035156 37.371094 36.953125 37.15625 36.953125 " fill-opacity="1" fill-rule="nonzero"/><g clip-path="url(#b0c4a0043b)"><path fill="#000000" d="M 43.046875 35.523438 C 43.046875 35.085938 42.6875 34.730469 42.25 34.730469 C 41.8125 34.734375 41.460938 35.09375 41.460938 35.53125 L 41.480469 38.234375 C 41.484375 38.671875 41.839844 39.027344 42.277344 39.023438 C 42.496094 39.023438 42.691406 38.933594 42.832031 38.789062 C 42.980469 38.648438 43.066406 38.445312 43.066406 38.226562 L 43.046875 35.523438 " fill-opacity="1" fill-rule="nonzero"/></g><g clip-path="url(#aab264cbff)"><path fill="#000000" d="M 34.921875 42.074219 C 34.484375 42.070312 34.128906 42.425781 34.128906 42.863281 C 34.128906 43.300781 34.480469 43.660156 34.917969 43.660156 L 37.617188 43.679688 C 37.839844 43.679688 38.039062 43.589844 38.183594 43.445312 C 38.324219 43.304688 38.414062 43.109375 38.414062 42.890625 C 38.414062 42.453125 38.058594 42.09375 37.625 42.09375 L 34.921875 42.074219 " fill-opacity="1" fill-rule="nonzero"/></g><path fill="#000000" d="M 47.703125 36.101562 C 47.488281 36.101562 47.292969 36.183594 47.140625 36.335938 L 45.070312 38.4375 C 44.921875 38.585938 44.839844 38.785156 44.839844 38.996094 C 44.839844 39.210938 44.925781 39.40625 45.074219 39.558594 C 45.386719 39.863281 45.886719 39.863281 46.191406 39.554688 C 46.195312 39.554688 46.195312 39.554688 46.195312 39.554688 L 48.265625 37.453125 C 48.574219 37.140625 48.574219 36.640625 48.261719 36.332031 C 48.113281 36.183594 47.910156 36.101562 47.703125 36.101562 " fill-opacity="1" fill-rule="nonzero"/><path fill="#000000" d="M 37.921875 45.640625 L 35.847656 47.742188 C 35.699219 47.894531 35.617188 48.09375 35.617188 48.304688 C 35.617188 48.519531 35.703125 48.714844 35.855469 48.863281 C 36.003906 49.015625 36.203125 49.097656 36.414062 49.09375 C 36.628906 49.09375 36.824219 49.011719 36.972656 48.863281 C 36.972656 48.863281 36.972656 48.863281 36.976562 48.863281 L 39.046875 46.761719 C 39.195312 46.609375 39.277344 46.410156 39.277344 46.199219 C 39.277344 45.984375 39.191406 45.789062 39.042969 45.640625 C 38.890625 45.488281 38.691406 45.40625 38.480469 45.410156 C 38.269531 45.410156 38.070312 45.492188 37.921875 45.640625 " fill-opacity="1" fill-rule="nonzero"/><path fill="#ffffff" d="M 96.414062 71.238281 C 93.296875 71.238281 90.554688 70.671875 88.1875 69.546875 C 85.816406 68.421875 83.960938 66.808594 82.617188 64.710938 C 81.277344 62.613281 80.613281 60.105469 80.613281 57.191406 L 89.527344 57.191406 C 89.527344 59.175781 90.21875 60.644531 91.601562 61.597656 C 92.984375 62.546875 94.566406 63.019531 96.355469 63.019531 C 97.480469 63.019531 98.539062 62.839844 99.527344 62.472656 C 100.519531 62.101562 101.335938 61.558594 101.972656 60.839844 C 102.617188 60.117188 102.941406 59.253906 102.941406 58.242188 C 102.941406 57.191406 102.570312 56.367188 101.832031 55.761719 C 101.09375 55.152344 100.101562 54.660156 98.863281 54.269531 C 97.617188 53.878906 96.257812 53.511719 94.78125 53.160156 C 93.257812 52.8125 91.699219 52.386719 90.109375 51.878906 C 88.515625 51.375 87.039062 50.707031 85.679688 49.875 C 84.320312 49.035156 83.234375 47.910156 82.417969 46.496094 C 81.601562 45.074219 81.195312 43.273438 81.195312 41.097656 C 81.195312 37.175781 82.523438 34.160156 85.179688 32.042969 C 87.84375 29.921875 91.453125 28.863281 96.007812 28.863281 C 100.667969 28.863281 104.28125 30.039062 106.84375 32.394531 C 109.410156 34.742188 110.691406 37.933594 110.691406 41.972656 L 101.949219 41.972656 C 101.949219 40.222656 101.328125 38.9375 100.085938 38.101562 C 98.839844 37.265625 97.40625 36.84375 95.773438 36.84375 C 94.335938 36.84375 93.011719 37.15625 91.800781 37.777344 C 90.59375 38.402344 89.992188 39.371094 89.992188 40.691406 C 89.992188 41.664062 90.347656 42.433594 91.066406 43 C 91.789062 43.558594 92.742188 44.023438 93.933594 44.398438 C 95.121094 44.765625 96.433594 45.121094 97.871094 45.46875 C 99.425781 45.859375 101.019531 46.316406 102.648438 46.84375 C 104.28125 47.367188 105.796875 48.074219 107.195312 48.964844 C 108.59375 49.859375 109.726562 51.046875 110.597656 52.519531 C 111.476562 53.996094 111.914062 55.863281 111.914062 58.125 C 111.914062 61.078125 111.203125 63.527344 109.78125 65.46875 C 108.367188 67.410156 106.496094 68.859375 104.164062 69.816406 C 101.832031 70.761719 99.25 71.238281 96.414062 71.238281 Z M 96.414062 71.238281 " fill-opacity="1" fill-rule="nonzero"/><path fill="#ffffff" d="M 133.777344 62.84375 L 137.621094 62.84375 L 137.621094 70.421875 L 131.621094 70.421875 C 128.152344 70.421875 125.417969 69.425781 123.414062 67.425781 C 121.417969 65.421875 120.417969 62.671875 120.417969 59.175781 L 120.417969 45.761719 L 114.710938 45.761719 L 114.710938 43.953125 L 127.179688 30.726562 L 128.753906 30.726562 L 128.753906 38.941406 L 137.445312 38.941406 L 137.445312 45.761719 L 128.9375 45.761719 L 128.9375 58.066406 C 128.9375 59.582031 129.351562 60.757812 130.1875 61.597656 C 131.023438 62.433594 132.21875 62.84375 133.777344 62.84375 Z M 133.777344 62.84375 " fill-opacity="1" fill-rule="nonzero"/><path fill="#ffffff" d="M 169.152344 38.882812 L 175.503906 38.882812 L 175.503906 70.363281 L 168.804688 70.363281 L 168.105469 67.566406 C 166.742188 68.730469 165.195312 69.644531 163.464844 70.304688 C 161.742188 70.960938 159.886719 71.296875 157.90625 71.296875 C 154.75 71.296875 151.929688 70.566406 149.445312 69.117188 C 146.957031 67.65625 144.996094 65.675781 143.558594 63.171875 C 142.121094 60.664062 141.402344 57.8125 141.402344 54.617188 C 141.402344 51.472656 142.121094 48.648438 143.558594 46.144531 C 144.996094 43.636719 146.957031 41.664062 149.445312 40.222656 C 151.929688 38.789062 154.75 38.070312 157.90625 38.070312 C 159.925781 38.070312 161.8125 38.414062 163.558594 39.09375 C 165.308594 39.769531 166.859375 40.710938 168.21875 41.914062 Z M 158.605469 63.253906 C 160.238281 63.253906 161.699219 62.886719 163 62.144531 C 164.304688 61.410156 165.324219 60.390625 166.0625 59.09375 C 166.800781 57.789062 167.171875 56.296875 167.171875 54.617188 C 167.171875 52.984375 166.800781 51.523438 166.0625 50.222656 C 165.324219 48.917969 164.304688 47.890625 163 47.136719 C 161.699219 46.375 160.238281 45.992188 158.605469 45.992188 C 156.933594 45.992188 155.453125 46.375 154.164062 47.136719 C 152.882812 47.890625 151.871094 48.917969 151.136719 50.222656 C 150.394531 51.523438 150.027344 52.984375 150.027344 54.617188 C 150.027344 56.296875 150.394531 57.777344 151.136719 59.058594 C 151.871094 60.339844 152.882812 61.363281 154.164062 62.121094 C 155.453125 62.878906 156.933594 63.253906 158.605469 63.253906 Z M 158.605469 63.253906 " fill-opacity="1" fill-rule="nonzero"/><path fill="#ffffff" d="M 199.753906 38.769531 L 202.550781 38.769531 L 202.550781 46.808594 L 198.882812 46.808594 C 196.472656 46.808594 194.75 47.375 193.71875 48.5 C 192.683594 49.625 192.167969 51.472656 192.167969 54.035156 L 192.167969 70.421875 L 183.660156 70.421875 L 183.660156 38.941406 L 189.136719 38.941406 L 190.652344 42.789062 C 192.789062 40.109375 195.820312 38.769531 199.753906 38.769531 Z M 199.753906 38.769531 " fill-opacity="1" fill-rule="nonzero"/><path fill="#ffffff" d="M 236.121094 29.621094 L 236.121094 37.835938 L 224.761719 37.835938 L 224.761719 70.421875 L 215.890625 70.421875 L 215.890625 37.835938 L 204.585938 37.835938 L 204.585938 29.621094 Z M 236.121094 29.621094 " fill-opacity="1" fill-rule="nonzero"/><path fill="#ffffff" d="M 267.132812 38.882812 L 273.484375 38.882812 L 273.484375 70.363281 L 266.78125 70.363281 L 266.082031 67.566406 C 264.722656 68.730469 263.175781 69.644531 261.445312 70.304688 C 259.71875 70.960938 257.867188 71.296875 255.886719 71.296875 C 252.730469 71.296875 249.910156 70.566406 247.425781 69.117188 C 244.9375 67.65625 242.976562 65.675781 241.539062 63.171875 C 240.097656 60.664062 239.382812 57.8125 239.382812 54.617188 C 239.382812 51.472656 240.097656 48.648438 241.539062 46.144531 C 242.976562 43.636719 244.9375 41.664062 247.425781 40.222656 C 249.910156 38.789062 252.730469 38.070312 255.886719 38.070312 C 257.90625 38.070312 259.789062 38.414062 261.539062 39.09375 C 263.285156 39.769531 264.839844 40.710938 266.199219 41.914062 Z M 256.585938 63.253906 C 258.214844 63.253906 259.679688 62.886719 260.976562 62.144531 C 262.285156 61.410156 263.304688 60.390625 264.042969 59.09375 C 264.78125 57.789062 265.152344 56.296875 265.152344 54.617188 C 265.152344 52.984375 264.78125 51.523438 264.042969 50.222656 C 263.304688 48.917969 262.285156 47.890625 260.976562 47.136719 C 259.679688 46.375 258.214844 45.992188 256.585938 45.992188 C 254.914062 45.992188 253.433594 46.375 252.144531 47.136719 C 250.863281 47.890625 249.851562 48.917969 249.113281 50.222656 C 248.375 51.523438 248.007812 52.984375 248.007812 54.617188 C 248.007812 56.296875 248.375 57.777344 249.113281 59.058594 C 249.851562 60.339844 250.863281 61.363281 252.144531 62.121094 C 253.433594 62.878906 254.914062 63.253906 256.585938 63.253906 Z M 256.585938 63.253906 " fill-opacity="1" fill-rule="nonzero"/><path fill="#ffffff" d="M 298.839844 38.070312 C 301.988281 38.070312 304.800781 38.789062 307.289062 40.222656 C 309.777344 41.664062 311.738281 43.636719 313.175781 46.144531 C 314.613281 48.648438 315.332031 51.492188 315.332031 54.675781 C 315.332031 57.871094 314.613281 60.722656 313.175781 63.230469 C 311.738281 65.734375 309.777344 67.714844 307.289062 69.175781 C 304.800781 70.625 301.988281 71.351562 298.839844 71.351562 C 297.210938 71.351562 295.652344 71.121094 294.167969 70.652344 C 292.691406 70.1875 291.351562 69.546875 290.148438 68.730469 L 290.148438 81.785156 L 281.640625 81.785156 L 281.640625 38.941406 L 287.292969 38.941406 L 288.75 41.796875 C 290.070312 40.632812 291.582031 39.71875 293.292969 39.058594 C 295.011719 38.402344 296.859375 38.070312 298.839844 38.070312 Z M 298.140625 63.3125 C 299.773438 63.3125 301.238281 62.9375 302.535156 62.179688 C 303.839844 61.421875 304.859375 60.390625 305.601562 59.09375 C 306.339844 57.789062 306.707031 56.316406 306.707031 54.675781 C 306.707031 53.042969 306.339844 51.582031 305.601562 50.28125 C 304.859375 48.976562 303.839844 47.949219 302.535156 47.195312 C 301.238281 46.433594 299.773438 46.050781 298.140625 46.050781 C 296.46875 46.050781 294.988281 46.433594 293.703125 47.195312 C 292.417969 47.949219 291.410156 48.976562 290.671875 50.28125 C 289.933594 51.582031 289.566406 53.042969 289.566406 54.675781 C 289.566406 56.316406 289.933594 57.789062 290.671875 59.09375 C 291.410156 60.390625 292.417969 61.421875 293.703125 62.179688 C 294.988281 62.9375 296.46875 63.3125 298.140625 63.3125 Z M 298.140625 63.3125 " fill-opacity="1" fill-rule="nonzero"/></svg>